# xmcd CD database file
#
# Track frame offsets:
#	150
#	14305
#	26568
#	37683
#	50288
#	62126
#	74386
#	85703
#	97433
#	108901
#	121150
#	133944
#	146759
#	157753
#	169005
#	181370
#	192385
#	205990
#	217833
#	229751
#	241827
#	255106
#	267960
#	279531
#	290888
#
# Disc length: 4050 seconds
#
# Revision: 0
# Processed by: cddbd v1.5.2PL0 Copyright (c) Steve Scherf et al.
# Submitted via: CDex 1.51
#
DISCID=640fd019
DTITLE=Various Artist - Stompin' Singers and Western Swingers #2:  Tulsa Twist
DYEAR=2005
DGENRE=Country
TTITLE0=Nettles Brothers String Band - Dan The Banana Man 
TTITLE1=Al Dexter - There'll Come A Time 
TTITLE2=Buddy Jones - Honey Don't Turn Me Down 
TTITLE3=Buddy Jones - I'm Going Back To Sadie 
TTITLE4=Dick Reinhart - Hey Toots 
TTITLE5=Dick Reinhart - Wooly Booger 
TTITLE6=Dickie Mcbride and Village Boys - Tulsa Twist 
TTITLE7=Johnnie Lee Wills - I Wonder What I'm Going To Do 
TTITLE8=Light Crust Doughboys - Alice Blue Gown 
TTITLE9=Light Crust Doughboys - Bear Creek Hop 
TTITLE10=Port Arthur Jubileers - Jeep's Blues 
TTITLE11=Bob Wills - Mississippi Delta Blues 
TTITLE12=Sunshine Boys - She's A Rounder 
TTITLE13=Ted Daffan's Texans - Worried Mind 
TTITLE14=Ted Daffan's Texans - Because 
TTITLE15=Texas Wanderers - Rackin' It Back 
TTITLE16=Texas Wanderers - Sundown Blues 
TTITLE17=Al Dexter - Darling It's All Over Now 
TTITLE18=Bill Boyd - Drink The Barrell Dry 
TTITLE19=Johnnie Lee Wills - What'cha Know Joe 
TTITLE20=Buddy Jones - Red Wagon 
TTITLE21=Charles Mitchell - Mean Mama Blues 
TTITLE22=Dick Reinhart - Rooky Toody 
TTITLE23=Hi-flyers - Reno Street Blues 
TTITLE24=Johnnie Lee Wills - Milk Cow Blues 
EXTD=YEAR: 2005
EXTT0=
EXTT1=
EXTT2=
EXTT3=
EXTT4=
EXTT5=
EXTT6=
EXTT7=
EXTT8=
EXTT9=
EXTT10=
EXTT11=
EXTT12=
EXTT13=
EXTT14=
EXTT15=
EXTT16=
EXTT17=
EXTT18=
EXTT19=
EXTT20=
EXTT21=
EXTT22=
EXTT23=
EXTT24=
PLAYORDER=
